<?xml version="1.0" encoding="utf-8"?>
<!-- Generator: Adobe Illustrator 26.5.0, SVG Export Plug-In . SVG Version: 6.00 Build 0)  -->
<svg version="1.1" id="Layer_2_00000101784383117558084690000016845134856233673632_"
	 xmlns="http://www.w3.org/2000/svg" xmlns:xlink="http://www.w3.org/1999/xlink" x="0px" y="0px" viewBox="0 0 33.1 33.1"
	 style="enable-background:new 0 0 33.1 33.1;" xml:space="preserve">
<style type="text/css">
	.st0{fill:#001111;}
</style>
<g id="ELEMENTS">
	<g>
		<path class="st0" d="M16.5,0C7.4,0,0,7.4,0,16.5l0,0c0,9.1,7.4,16.5,16.5,16.5l0,0c9.1,0,16.5-7.4,16.5-16.5
			C33.1,7.4,25.7,0,16.5,0z M27.2,22c-1.6,1.2-3.5,2.1-5.4,2.7c-0.4-0.6-0.8-1.2-1.2-1.9c0.6-0.2,1.2-0.5,1.8-0.9
			c-0.1-0.1-0.3-0.2-0.5-0.4c-3.4,1.6-7.4,1.6-10.8,0c-0.1,0.1-0.3,0.2-0.4,0.4c0.6,0.3,1.2,0.6,1.8,0.9c-0.3,0.7-0.7,1.3-1.2,1.9
			C9.5,24.1,7.6,23.2,6,22c-0.4-4,0.4-8,3.2-12.2c1.4-0.6,2.9-1.1,4.4-1.4c0.2,0.4,0.4,0.8,0.6,1.2c1.6-0.2,3.3-0.2,4.9,0
			c0.1-0.4,0.4-0.8,0.6-1.2c1.5,0.3,3,0.7,4.4,1.4C26.4,13.4,27.6,17.4,27.2,22L27.2,22z"/>
		<path class="st0" d="M13,15.2c-1.1,0-1.9,1-1.9,2.2s0.9,2.1,1.9,2.1s1.9-1,1.9-2.1C15,16.2,14.1,15.2,13,15.2L13,15.2z"/>
		<path class="st0" d="M20.1,15.2c-1.1,0-1.9,1-1.9,2.2s0.9,2.1,1.9,2.1s1.9-1,1.9-2.1C22.1,16.2,21.2,15.2,20.1,15.2L20.1,15.2z"/>
	</g>
</g>
</svg>
