<?xml version="1.0" encoding="UTF-8"?>
<svg id="Layer_2" data-name="Layer 2" xmlns="http://www.w3.org/2000/svg" viewBox="0 0 33.08 33.08">
  <g id="ELEMENTS">
    <g>
      <path d="M16.54,0C7.4,0,0,7.41,0,16.54H0c0,9.14,7.41,16.54,16.54,16.54h0c9.14,0,16.54-7.41,16.54-16.54C33.08,7.4,25.68,0,16.54,0Zm10.63,21.99c-1.63,1.21-3.46,2.14-5.4,2.73-.44-.59-.82-1.22-1.16-1.87,.63-.24,1.24-.53,1.82-.87-.15-.11-.3-.23-.45-.35-3.42,1.62-7.38,1.62-10.8,0-.14,.12-.29,.23-.44,.35,.58,.34,1.19,.63,1.82,.87-.33,.66-.72,1.28-1.16,1.88-1.94-.59-3.77-1.51-5.4-2.73-.38-3.98,.38-8.02,3.16-12.16,1.4-.65,2.88-1.11,4.41-1.37,.21,.38,.41,.76,.58,1.16,1.62-.24,3.26-.24,4.88,0,.15-.37,.37-.82,.56-1.16,1.52,.26,3,.71,4.4,1.36,2.41,3.55,3.61,7.56,3.17,12.17Z"/>
      <path d="M13.04,15.24c-1.07,0-1.92,.97-1.92,2.16s.86,2.15,1.92,2.15,1.91-.97,1.92-2.15c0-1.19-.85-2.15-1.92-2.15Z"/>
      <path d="M20.13,15.24c-1.07,0-1.92,.97-1.92,2.16s.86,2.15,1.92,2.15,1.91-.97,1.92-2.15c.01-1.19-.84-2.15-1.92-2.15Z"/>
    </g>
  </g>
</svg>