<?xml version="1.0" encoding="UTF-8"?>
<svg id="Layer_2" data-name="Layer 2" xmlns="http://www.w3.org/2000/svg" viewBox="0 0 33.18 33.18">
  <g id="ELEMENTS">
    <g>
      <path d="M16.67,13.42c-1.75,0-3.17,1.42-3.17,3.17s1.42,3.17,3.17,3.17,3.17-1.42,3.17-3.17-1.42-3.17-3.17-3.17Z"/>
      <path d="M20.6,8.42H12.57c-2.29,0-4.15,1.86-4.15,4.15v8.03c0,2.29,1.86,4.15,4.15,4.15h8.03c2.29,0,4.15-1.86,4.15-4.15V12.57c0-2.29-1.86-4.15-4.15-4.15Zm-3.93,13.11c-2.73,0-4.95-2.22-4.95-4.95s2.22-4.95,4.95-4.95,4.95,2.22,4.95,4.95-2.22,4.95-4.95,4.95Zm5.24-9.06c-.65,0-1.18-.53-1.18-1.18s.53-1.18,1.18-1.18,1.18,.53,1.18,1.18-.53,1.18-1.18,1.18Z"/>
      <path d="M16.59,0C7.43,0,0,7.43,0,16.59s7.43,16.59,16.59,16.59,16.59-7.43,16.59-16.59S25.75,0,16.59,0Zm10.05,20.6c0,3.33-2.71,6.04-6.04,6.04H12.57c-3.33,0-6.04-2.71-6.04-6.04V12.57c0-3.33,2.71-6.04,6.04-6.04h8.03c3.33,0,6.04,2.71,6.04,6.04v8.03Z"/>
    </g>
  </g>
</svg>