<?xml version="1.0" encoding="UTF-8"?>
<svg id="Layer_2" data-name="Layer 2" xmlns="http://www.w3.org/2000/svg" viewBox="0 0 33.16 33.16">
  <g id="ELEMENTS">
    <path d="M16.58,0C7.42,0,0,7.42,0,16.58s7.42,16.58,16.58,16.58,16.58-7.42,16.58-16.58S25.74,0,16.58,0Zm-7.41,9.12h14.82c.2,0,.4,.03,.59,.08-.03,.02-.05,.04-.08,.07l-6.62,7.51c-.33,.38-.79,.59-1.3,.59s-.97-.21-1.3-.59l-6.69-7.59c.18-.05,.38-.08,.58-.08Zm17.11,10.9c0,2.22-1.8,4.03-4.03,4.03H10.91c-2.22,0-4.03-1.8-4.03-4.03V11.41c0-.32,.07-.62,.18-.9l6.7,7.61c.71,.81,1.73,1.27,2.81,1.27,1.07,0,2.1-.46,2.81-1.27l6.62-7.51s.05-.07,.08-.11c.12,.28,.19,.59,.19,.91v8.61Z"/>
  </g>
</svg>