<?xml version="1.0" encoding="utf-8"?>
<!-- Generator: Adobe Illustrator 26.5.0, SVG Export Plug-In . SVG Version: 6.00 Build 0)  -->
<svg version="1.1" id="Layer_2_00000078015868096014324260000000412721914974313640_"
	 xmlns="http://www.w3.org/2000/svg" xmlns:xlink="http://www.w3.org/1999/xlink" x="0px" y="0px" viewBox="0 0 33.2 33.2"
	 style="enable-background:new 0 0 33.2 33.2;" xml:space="preserve">
<style type="text/css">
	.st0{fill:#111111;}
</style>
<g id="ELEMENTS">
	<path class="st0" d="M16.6,0C7.4,0,0,7.4,0,16.6s7.4,16.6,16.6,16.6s16.6-7.4,16.6-16.6S25.7,0,16.6,0z M9.2,9.1H24
		c0.2,0,0.4,0,0.6,0.1c0,0,0,0-0.1,0.1l-6.6,7.5c-0.3,0.4-0.8,0.6-1.3,0.6s-1-0.2-1.3-0.6L8.6,9.2C8.8,9.1,9,9.1,9.2,9.1L9.2,9.1z
		 M26.3,20c0,2.2-1.8,4-4,4H10.9c-2.2,0-4-1.8-4-4v-8.6c0-0.3,0.1-0.6,0.2-0.9l6.7,7.6c0.7,0.8,1.7,1.3,2.8,1.3s2.1-0.5,2.8-1.3
		l6.6-7.5c0,0,0-0.1,0.1-0.1c0.1,0.3,0.2,0.6,0.2,0.9V20L26.3,20z"/>
</g>
</svg>
