<?xml version="1.0" encoding="UTF-8"?>
<!DOCTYPE svg PUBLIC "-//W3C//DTD SVG 1.1//EN" "http://www.w3.org/Graphics/SVG/1.1/DTD/svg11.dtd">
<svg xmlns="http://www.w3.org/2000/svg" version="1.1" width="214px" height="184px" style="shape-rendering:geometricPrecision; text-rendering:geometricPrecision; image-rendering:optimizeQuality; fill-rule:evenodd; clip-rule:evenodd" xmlns:xlink="http://www.w3.org/1999/xlink">
<g><path style="opacity:0.973" fill="#fefffe" d="M -0.5,-0.5 C 70.8333,-0.5 142.167,-0.5 213.5,-0.5C 213.5,0.166667 213.5,0.833333 213.5,1.5C 209.149,7.68516 205.149,14.1852 201.5,21C 161.163,21.1667 120.829,21.6667 80.5,22.5C 93.3808,44.4322 106.381,66.2655 119.5,88C 115.383,95.6192 111.049,103.119 106.5,110.5C 88.7483,81.3321 71.2483,51.9987 54,22.5C 39.9081,21.6757 25.7414,21.1757 11.5,21C 7.85086,14.1852 3.85086,7.68516 -0.5,1.5C -0.5,0.833333 -0.5,0.166667 -0.5,-0.5 Z"/></g>
<g><path style="opacity:0.951" fill="#fefffe" d="M 19.5,31.5 C 28.1922,31.1686 36.8589,31.502 45.5,32.5C 64.9138,66.9963 84.5805,101.33 104.5,135.5C 120.611,109.453 136.611,83.286 152.5,57C 147.5,56.3333 142.5,56.3333 137.5,57C 133.71,62.0788 130.044,67.2455 126.5,72.5C 118.102,59.4287 110.102,46.0954 102.5,32.5C 132.826,31.5002 163.159,31.1668 193.5,31.5C 165.285,82.2602 136.285,132.594 106.5,182.5C 80.096,138.033 53.9293,93.3665 28,48.5C 24.6073,43.0479 21.774,37.3813 19.5,31.5 Z"/></g>
</svg>
