<?xml version="1.0" encoding="utf-8"?>
<!-- Generator: Adobe Illustrator 26.5.0, SVG Export Plug-In . SVG Version: 6.00 Build 0)  -->
<svg version="1.1" id="Layer_2_00000160873257633030152850000010590580976017118100_"
	 xmlns="http://www.w3.org/2000/svg" xmlns:xlink="http://www.w3.org/1999/xlink" x="0px" y="0px" viewBox="0 0 33.2 33.2"
	 style="enable-background:new 0 0 33.2 33.2;" xml:space="preserve">
<style type="text/css">
	.st0{fill:#111111;}
</style>
<g id="ELEMENTS">
	<path class="st0" d="M16.6,0C7.4,0,0,7.4,0,16.6s7.4,16.6,16.6,16.6s16.6-7.4,16.6-16.6S25.8,0,16.6,0z M24.5,10.8
		c0,0.7-0.4,3-0.8,5.6c-0.6,3.6-1.2,7.5-1.2,7.5s-0.1,1.1-0.9,1.3s-2.2-0.7-2.4-0.9C19,24.2,15.6,22,14.3,21
		c-0.3-0.3-0.7-0.9,0.1-1.5c1.7-1.6,3.8-3.6,5-4.8c0.6-0.6,1.1-1.9-1.2-0.3c-3.4,2.4-6.8,4.5-6.8,4.5s-0.8,0.5-2.2,0s-3.1-1-3.1-1
		s-1.2-0.7,0.8-1.5c0,0,8.3-3.4,11.2-4.6c1.1-0.5,4.8-2,4.8-2S24.6,9.2,24.5,10.8L24.5,10.8z"/>
</g>
</svg>
