<?xml version="1.0" encoding="UTF-8"?>
<svg id="Layer_2" data-name="Layer 2" xmlns="http://www.w3.org/2000/svg" viewBox="0 0 33.18 33.18">
  <g id="ELEMENTS">
    <path d="M16.59,0C7.43,0,0,7.43,0,16.59s7.43,16.59,16.59,16.59,16.59-7.43,16.59-16.59S25.75,0,16.59,0Zm7.91,10.79c-.05,.67-.43,3.02-.81,5.56-.58,3.6-1.2,7.53-1.2,7.53,0,0-.1,1.1-.91,1.29-.81,.19-2.16-.67-2.4-.86-.19-.14-3.6-2.3-4.84-3.36-.34-.29-.72-.86,.05-1.53,1.73-1.58,3.79-3.55,5.03-4.79,.58-.58,1.15-1.92-1.25-.29-3.4,2.35-6.76,4.55-6.76,4.55,0,0-.77,.48-2.21,.05-1.44-.43-3.12-1.01-3.12-1.01,0,0-1.15-.72,.81-1.49,0,0,8.29-3.4,11.17-4.6,1.1-.48,4.84-2.01,4.84-2.01,0,0,1.73-.67,1.58,.96Z"/>
  </g>
</svg>