<?xml version="1.0" encoding="utf-8"?>
<!-- Generator: Adobe Illustrator 26.5.0, SVG Export Plug-In . SVG Version: 6.00 Build 0)  -->
<svg version="1.1" id="Layer_2_00000004519093253989953500000007339958082912390077_"
	 xmlns="http://www.w3.org/2000/svg" xmlns:xlink="http://www.w3.org/1999/xlink" x="0px" y="0px" viewBox="0 0 33.2 33.2"
	 style="enable-background:new 0 0 33.2 33.2;" xml:space="preserve">
<style type="text/css">
	.st0{fill:#111111;}
</style>
<g id="ELEMENTS">
	<path class="st0" d="M16.6,0C7.4,0,0,7.4,0,16.6s7.4,16.6,16.6,16.6s16.6-7.4,16.6-16.6S25.8,0,16.6,0z M26.1,14.5L26.1,14.5
		c-0.2,0-0.4,0-0.5,0c-2,0-3.8-1-4.9-2.6v8.9c0,3.6-3,6.6-6.6,6.6s-6.6-3-6.6-6.6s3-6.6,6.6-6.6c0.1,0,0.3,0,0.4,0v3.2
		c-0.1,0-0.3,0-0.4,0c-1.9,0-3.4,1.5-3.4,3.4s1.5,3.4,3.4,3.4s3.5-1.5,3.5-3.3V5.7h3.1c0.3,2.8,2.5,5,5.3,5.2v3.6H26.1z"/>
</g>
</svg>
