<?xml version="1.0" encoding="UTF-8"?>
<svg id="Layer_2" data-name="Layer 2" xmlns="http://www.w3.org/2000/svg" viewBox="0 0 33.18 33.18">
  <g id="ELEMENTS">
    <path d="M16.59,0C7.43,0,0,7.43,0,16.59s7.43,16.59,16.59,16.59,16.59-7.43,16.59-16.59S25.75,0,16.59,0Zm9.55,14.51h0c-.18,.02-.36,.03-.53,.03-1.96,0-3.78-.99-4.86-2.62v8.94c0,3.65-2.96,6.6-6.6,6.6s-6.6-2.96-6.6-6.6,2.96-6.6,6.6-6.6c.14,0,.27,.01,.41,.02v3.25c-.14-.02-.27-.04-.41-.04-1.86,0-3.37,1.51-3.37,3.37s1.51,3.37,3.37,3.37,3.51-1.47,3.51-3.33l.03-15.17h3.11c.29,2.79,2.54,4.97,5.34,5.18v3.62Z"/>
  </g>
</svg>