<?xml version="1.0" encoding="UTF-8"?>
<svg id="Layer_2" data-name="Layer 2" xmlns="http://www.w3.org/2000/svg" viewBox="0 0 33.18 33.18">
  <g id="ELEMENTS">
    <path d="M16.59,0C7.43,0,0,7.43,0,16.59s7.43,16.59,16.59,16.59,16.59-7.43,16.59-16.59S25.75,0,16.59,0Zm10.91,9.82c0,.06,0,.19-.11,.35-.51,.68-1.05,1.29-1.73,1.8-.1,.07-.26,.15-.26,.29,0,3.58-.92,7.16-3.53,9.75-3.32,3.3-8.31,4.2-12.74,2.98-.86-.24-1.68-.57-2.46-.99-.26-.14-.52-.29-.77-.46-.06-.05-.11-.1-.06-.13,.05-.03,.1-.03,.29,0,1.24,.12,2.51-.06,3.69-.47,.64-.23,2.03-.68,2.43-1.29,0-.01,.02-.01,.03-.03-.16-.04-.32-.04-.48-.07-1.2-.34-2.81-.95-3.55-2.98-.05-.12,0-.18,.12-.16,.99,.08,1.35,.02,1.69-.05-.19-.03-.39-.1-.57-.18-1.52-.58-2.62-2.06-2.82-3.65-.02-.18-.04-.34-.03-.51,0-.12,.06-.16,.17-.09,.78,.4,1.65,.5,1.72,.48-.19-.15-.37-.32-.55-.48-1.31-1.24-1.82-3.78-.77-5.35,.09-.13,.14-.13,.25,0,2.4,2.74,5.36,4.02,8.94,4.55,.09,.01,.1,0,.09-.1-.09-.63-.11-1.25,.05-1.87,.16-.65,.47-1.25,.88-1.77,.4-.5,.91-.91,1.48-1.21,.57-.3,1.19-.48,1.83-.52,.66-.04,1.32,.06,1.93,.31,.46,.19,.88,.45,1.26,.77,.08,.07,.15,.15,.23,.23,.05,.05,.1,.07,.18,.05,.91-.23,1.77-.55,2.6-1,.04-.02,.07-.03,.12,0,.04,.03,.02,.08,0,.11-.15,.48-.41,.93-.73,1.33-.21,.26-.73,.9-1.08,.96,.74-.12,1.5-.31,2.19-.63,.09-.04,.09-.06,.09,0v.02Z"/>
  </g>
</svg>