<?xml version="1.0" encoding="utf-8"?>
<!-- Generator: Adobe Illustrator 26.5.0, SVG Export Plug-In . SVG Version: 6.00 Build 0)  -->
<svg version="1.1" id="Layer_2_00000090280072161772212610000003648670944575311744_"
	 xmlns="http://www.w3.org/2000/svg" xmlns:xlink="http://www.w3.org/1999/xlink" x="0px" y="0px" viewBox="0 0 33.2 33.2"
	 style="enable-background:new 0 0 33.2 33.2;" xml:space="preserve">
<style type="text/css">
	.st0{fill:#111111;}
</style>
<g id="ELEMENTS">
	<path class="st0" d="M16.6,0C7.4,0,0,7.4,0,16.6s7.4,16.6,16.6,16.6s16.6-7.4,16.6-16.6S25.8,0,16.6,0z M27.5,9.8
		c0,0.1,0,0.2-0.1,0.4c-0.5,0.7-1,1.3-1.7,1.8c-0.1,0.1-0.3,0.1-0.3,0.3c0,3.6-0.9,7.2-3.5,9.8c-3.3,3.3-8.3,4.2-12.7,3
		c-0.9-0.2-1.7-0.6-2.5-1c-0.3-0.1-0.5-0.3-0.8-0.5c-0.1,0-0.1-0.1-0.1-0.1c0.1,0,0.1,0,0.3,0c1.2,0.1,2.5-0.1,3.7-0.5
		c0.6-0.2,2-0.7,2.4-1.3l0,0c-0.2,0-0.3,0-0.5-0.1c-1.2-0.3-2.8-1-3.6-3c-0.1-0.1,0-0.2,0.1-0.2c1,0.1,1.4,0,1.7,0
		c-0.2,0-0.4-0.1-0.6-0.2c-1.5-0.6-2.6-2.1-2.8-3.6c0-0.2,0-0.3,0-0.5c0-0.1,0.1-0.2,0.2-0.1c0.8,0.4,1.7,0.5,1.7,0.5
		C8.2,14.4,8,14.2,7.8,14C6.5,12.8,6,10.2,7,8.6c0.1-0.1,0.1-0.1,0.2,0c2.4,2.7,5.4,4,8.9,4.6c0.1,0,0.1,0,0.1-0.1
		c-0.1-0.6-0.1-1.2,0-1.9c0.2-0.6,0.5-1.2,0.9-1.8c0.4-0.5,0.9-0.9,1.5-1.2s1.2-0.5,1.8-0.5c0.7,0,1.3,0.1,1.9,0.3
		c0.5,0.2,0.9,0.4,1.3,0.8c0.4,0,0.5,0.1,0.5,0.2c0.1,0,0.1,0,0.2,0c0.9-0.2,1.8-0.6,2.6-1C27,8,27,8,27,8v0.1
		c-0.1,0.5-0.4,0.9-0.7,1.3c-0.2,0.3-0.7,0.9-1.1,1C26,10.3,26.7,10.1,27.5,9.8C27.5,9.8,27.5,9.7,27.5,9.8L27.5,9.8L27.5,9.8z"/>
</g>
</svg>
