<?xml version="1.0" encoding="utf-8"?>
<!-- Generator: Adobe Illustrator 26.5.0, SVG Export Plug-In . SVG Version: 6.00 Build 0)  -->
<svg version="1.1" id="Layer_2_00000118361735054672722230000009998247207582470291_"
	 xmlns="http://www.w3.org/2000/svg" xmlns:xlink="http://www.w3.org/1999/xlink" x="0px" y="0px" viewBox="0 0 33.2 33.2"
	 style="enable-background:new 0 0 33.2 33.2;" xml:space="preserve">
<style type="text/css">
	.st0{fill:#111111;}
</style>
<g id="ELEMENTS">
	<g>
		<path class="st0" d="M20.4,16.5l-5.2-2.8c-0.2-0.1-0.9,0-0.9,0.3v5.5c0,0.2,0.7,0.4,0.9,0.3l5.5-2.7
			C20.8,16.9,20.6,16.6,20.4,16.5z"/>
		<path class="st0" d="M16.6,0C7.4,0,0,7.4,0,16.6s7.4,16.6,16.6,16.6s16.6-7.4,16.6-16.6S25.8,0,16.6,0z M27.7,19.4
			c0,2.6-2.1,4.8-4.8,4.8H10.8c-2.6,0-4.8-2.1-4.8-4.8v-5.7c0-2.6,2.1-4.8,4.8-4.8H23c2.6,0,4.8,2.1,4.8,4.8L27.7,19.4L27.7,19.4z"
			/>
	</g>
</g>
</svg>
