<?xml version="1.0" encoding="UTF-8"?>
<svg id="Layer_2" data-name="Layer 2" xmlns="http://www.w3.org/2000/svg" viewBox="0 0 33.18 33.18">
  <g id="ELEMENTS">
    <g>
      <path d="M20.36,16.45l-5.22-2.84c-.21-.12-.95,.03-.95,.28v5.54c0,.24,.73,.4,.94,.28l5.46-2.7c.22-.12,0-.44-.23-.56Z"/>
      <path d="M16.59,0C7.43,0,0,7.43,0,16.59s7.43,16.59,16.59,16.59,16.59-7.43,16.59-16.59S25.75,0,16.59,0Zm11.15,19.42c0,2.63-2.13,4.76-4.76,4.76H10.81c-2.63,0-4.76-2.13-4.76-4.76v-5.66c0-2.63,2.13-4.76,4.76-4.76h12.17c2.63,0,4.76,2.13,4.76,4.76v5.66Z"/>
    </g>
  </g>
</svg>